<!-- Generator: Adobe Illustrator 21.1.0, SVG Export Plug-In  -->
<svg version="1.1"
	 xmlns="http://www.w3.org/2000/svg" xmlns:xlink="http://www.w3.org/1999/xlink" xmlns:a="http://ns.adobe.com/AdobeSVGViewerExtensions/3.0/"
	 x="0px" y="0px" width="79.1px" height="51.8px" viewBox="0 0 79.1 51.8" style="enable-background:new 0 0 79.1 51.8;"
	 xml:space="preserve">
<style type="text/css">
	.st0{fill:#FFFFFF;}
	.st1{fill-rule:evenodd;clip-rule:evenodd;fill:#210D0C;}
	.st2{fill-rule:evenodd;clip-rule:evenodd;fill:#D91F26;}
	.st3{fill-rule:evenodd;clip-rule:evenodd;fill:#FFFFFF;}
	.st4{fill-rule:evenodd;clip-rule:evenodd;fill:#E7362E;}
	.st5{fill-rule:evenodd;clip-rule:evenodd;fill:#EA6A6D;}
	.st6{fill:#EA6A6D;}
</style>
<defs>
</defs>
<g>
	<g>
		<path class="st0" d="M11,30.8C11,30.8,11,30.8,11,30.8c-0.2,0.2-0.4,0.6-0.4,0.9v7.7H7.8v-7.7c0-0.4-0.1-0.7-0.4-0.9
			c-0.5-0.5-1.3-0.5-1.8,0c-0.2,0.2-0.4,0.6-0.4,0.9v7.7H2.5v-7.7c0-0.4-0.1-0.7-0.4-0.9c-0.5-0.5-1.3-0.5-1.8,0
			C0.1,31,0,31.3,0,31.7v8.9c0,0.4,0.1,0.7,0.4,0.9c0.2,0.2,0.6,0.4,0.9,0.4h10.6c0.3,0,0.7-0.1,0.9-0.4c0.2-0.2,0.4-0.6,0.4-0.9
			v-8.9c0-0.4-0.1-0.7-0.4-0.9C12.3,30.3,11.4,30.3,11,30.8z"/>
		<path class="st0" d="M20.8,31.3c-0.2-0.5-0.6-0.8-1.2-0.8c-0.5,0-1,0.3-1.2,0.8L14.8,40c-0.1,0.2-0.1,0.4-0.1,0.5
			c0,0.3,0.1,0.6,0.3,0.9c0.4,0.4,1.1,0.5,1.6,0.2c0.2-0.1,0.4-0.3,0.5-0.6l0.6-1.5h3.9l0.6,1.5c0.1,0.2,0.3,0.4,0.5,0.6
			c0.2,0.1,0.4,0.2,0.7,0.2c0.3,0,0.7-0.1,0.9-0.4c0.2-0.2,0.4-0.5,0.4-0.9c0-0.2,0-0.3-0.1-0.5L20.8,31.3z M19.7,34.8l1,2.5h-2
			L19.7,34.8z"/>
		<path class="st0" d="M31.2,31.3c-0.2-0.5-0.6-0.8-1.2-0.8c-0.5,0-1,0.3-1.2,0.8L25.2,40c-0.1,0.2-0.1,0.4-0.1,0.5
			c0,0.3,0.1,0.6,0.3,0.9c0.4,0.4,1.1,0.5,1.6,0.2c0.2-0.1,0.4-0.3,0.5-0.6l2.6-6.2l2.5,6.2c0.1,0.2,0.3,0.4,0.5,0.6
			c0.2,0.1,0.4,0.2,0.7,0.2c0.4,0,0.7-0.1,0.9-0.4c0.2-0.2,0.3-0.5,0.3-0.9c0-0.2,0-0.3-0.1-0.5L31.2,31.3z M26.7,41.1L26.7,41.1
			L26.7,41.1L26.7,41.1z"/>
		<path class="st0" d="M44.6,31L44.6,31c-0.9-0.5-1.9-0.7-3-0.7c-1.1,0-2.1,0.3-3,0.7c-0.9,0.5-1.6,1.2-2.1,2.1
			c-0.5,0.9-0.7,1.9-0.7,3c0,1.1,0.2,2.1,0.7,3c0.5,0.9,1.2,1.6,2.1,2.1c0.9,0.5,1.9,0.7,3,0.7c1.1,0,2.1-0.3,3-0.7
			c0.9-0.5,1.6-1.2,2.1-2.1c0.5-0.9,0.7-1.9,0.7-3c0-1.1-0.2-2.1-0.7-3C46.2,32.2,45.5,31.5,44.6,31z M45,36.1
			c0,0.7-0.1,1.2-0.4,1.8c-0.3,0.5-0.7,0.9-1.2,1.2c-0.5,0.3-1.1,0.4-1.7,0.4c-0.6,0-1.2-0.1-1.7-0.4c-0.5-0.3-0.9-0.7-1.2-1.2
			c-0.3-0.5-0.4-1.1-0.4-1.8c0-0.6,0.1-1.2,0.4-1.8c0.3-0.5,0.7-0.9,1.2-1.2c0,0,0,0,0,0c0.5-0.3,1.1-0.4,1.7-0.4
			c0.6,0,1.2,0.1,1.7,0.4c0.5,0.3,0.9,0.7,1.2,1.2C44.8,34.9,45,35.5,45,36.1z"/>
		<path class="st0" d="M52.9,33.1c0.5-0.3,1-0.4,1.6-0.4c0.5,0,0.8,0.1,1.1,0.2c0.3,0.1,0.6,0.3,0.9,0.6c0.5,0.4,1.2,0.4,1.7,0
			c0.3-0.2,0.4-0.5,0.4-0.9c0-0.2,0-0.4-0.1-0.5c-0.1-0.2-0.2-0.3-0.4-0.5c-0.5-0.4-1.1-0.8-1.6-1c-0.5-0.2-1.2-0.3-1.9-0.3
			c-1,0-2,0.3-2.9,0.8c-0.9,0.5-1.5,1.2-2,2.1c-0.5,0.9-0.7,1.9-0.7,2.9c0,1.1,0.2,2.1,0.7,2.9c0.5,0.9,1.2,1.6,2,2.1
			c0.9,0.5,1.8,0.8,2.9,0.8c1.3,0,2.5-0.4,3.6-1.3c0,0,0,0,0,0c0.3-0.3,0.4-0.6,0.4-0.9c0-0.3-0.1-0.6-0.3-0.9
			c-0.4-0.4-1-0.5-1.6-0.1c-0.7,0.5-1.3,0.7-2.1,0.7c-0.6,0-1.1-0.1-1.6-0.4c-0.5-0.3-0.9-0.7-1.2-1.2c-0.3-0.5-0.4-1.1-0.4-1.7
			c0-0.6,0.1-1.2,0.4-1.7C52.1,33.9,52.4,33.5,52.9,33.1z"/>
		<path class="st0" d="M67.8,30.4h-7c-0.3,0-0.6,0.1-0.9,0.4c-0.2,0.2-0.3,0.5-0.3,0.9c0,0.3,0.1,0.6,0.4,0.9
			c0.2,0.2,0.5,0.3,0.9,0.3H63v7.7c0,0.3,0.1,0.7,0.4,0.9c0.2,0.2,0.6,0.4,0.9,0.4c0.3,0,0.7-0.1,0.9-0.4c0.2-0.2,0.4-0.6,0.4-0.9
			v-7.7h2.2c0.3,0,0.6-0.1,0.9-0.3c0.2-0.2,0.4-0.5,0.4-0.9s-0.1-0.6-0.3-0.9C68.4,30.5,68.1,30.4,67.8,30.4z"/>
		<path class="st0" d="M78.6,36.1c-0.3-0.6-0.8-1-1.4-1.3c-0.6-0.3-1.3-0.5-2-0.5h-2.1v-2.7c0-0.4-0.1-0.7-0.4-0.9
			c-0.5-0.4-1.3-0.4-1.8,0c-0.3,0.2-0.4,0.5-0.4,0.9v8.9c0,0.3,0.1,0.7,0.4,0.9c0.2,0.2,0.6,0.4,0.9,0.4h3.4c0.7,0,1.4-0.2,2-0.5
			c0.6-0.3,1.1-0.8,1.4-1.4c0.3-0.6,0.5-1.2,0.5-2C79.1,37.3,79,36.7,78.6,36.1z M76.3,39c-0.3,0.2-0.6,0.4-1.1,0.4h-2.1v-2.7h2.1
			c0.5,0,0.8,0.1,1.1,0.3c0.2,0.2,0.3,0.5,0.3,1C76.6,38.5,76.5,38.8,76.3,39z"/>
	</g>
	<g>
		<path class="st1" d="M46.3,5.1c1.1,1.4,9.9,5.9,10.4,6.1c0.5,0.2,1.2,1.1-0.7,2.7c-2,1.6-17,1.1-19.8-0.4
			c-2.8-1.5-6.5-2.9-8.4-2.5C26,11.4,24,9.6,27.3,7.7C30.6,5.8,46.3,5.1,46.3,5.1z"/>
		<path class="st2" d="M57.5,11.3c0.1,0,0.4-0.4,0.4,0c-0.4,7.7-5.1,9.4-11.1,9.3c-15-0.2-22.5-8.3-25.7-9.4c0,0,4.1-1.6,8.8-2.5
			c10.9-2.1,11.6,6.5,20.6,5C55.3,12.9,57.5,11.3,57.5,11.3z"/>
		<g>
			<path class="st3" d="M51.3,8.9c0,0,0,1.3-1.6,1.7c-1.7,0.4-2.9,0-3.3-0.3C46,10,46.1,6.9,46.5,6.8c0.5-0.2,4.2,0.8,4.5,1.2
				C51.4,8.3,51.3,8.9,51.3,8.9z"/>
			<path class="st3" d="M28.7,8.9c0,0,0,1.3,1.6,1.7c1.7,0.4,2.9,0,3.3-0.3c0.4-0.3,0.3-3.4-0.2-3.5C33,6.6,29.3,7.6,29,7.9
				C28.7,8.3,28.7,8.9,28.7,8.9z"/>
			<path class="st3" d="M46.4,6.4c0.1,0.3-0.1,3-0.3,3.8c-0.2,0.8-0.9,1-1.7,1c-0.8,0-3.6-0.3-4-0.6c-0.5-0.3-0.3-4.9-0.3-4.9
				L46.4,6.4z"/>
			<path class="st3" d="M33.7,6.4c-0.1,0.3,0.1,3,0.3,3.8c0.2,0.8,0.9,1,1.7,1c0.8,0,3.6-0.3,4-0.6c0.5-0.3,0.3-4.9,0.3-4.9
				L33.7,6.4z"/>
		</g>
		<path class="st4" d="M57.7,11.1c-1.2-0.2-1.6-1.8-4.6-5.7c-3.2-4.1-4.4-5.6-8.3-5.4c-3.9,0.2-3.5,1.3-5.2,1.3
			c-1.7,0-3.1-1.3-5.7-1.2c-2.5,0.1-5.5,3-7.2,5.6c-1.7,2.6-2.9,4.1-4,4.8c-1.1,0.7-1.4,0.7-1.4,0.7s1,0.6,3,0.4
			c2-0.1,5.3-0.8,7.1-2.2c1.8-1.4,4.4-3.2,5.6-3.1C37.9,6.3,38,6.9,40,7c2,0.1,2.2-0.8,3.8-0.6c1.9,0.2,10.4,7.9,14.1,4.9
			C58.1,11.2,57.8,11.1,57.7,11.1z"/>
		<path class="st5" d="M38.8,16.5c-1.5,0.5,3.7,2.7,8,2.6c5-0.1,8.7-2.1,8.4-4.1C55.1,14.3,48.2,18.6,38.8,16.5z"/>
		<path class="st5" d="M44.9,0.3c3.4,0.1,5.7,3.3,5.3,3.2c-3.1-1.4-5.5-1.8-10.4-0.9C40.4,2.2,42.7,0.2,44.9,0.3z"/>
	</g>
	<g>
		<path class="st6" d="M12.9,48c0,0,0.1,0.1,0.1,0.2v2.2c0,0.1,0,0.1-0.1,0.2s-0.1,0.1-0.2,0.1c-0.1,0-0.1,0-0.2-0.1
			c0,0-0.1-0.1-0.1-0.2v-0.8c-0.1,0.1-0.2,0.1-0.3,0.2s-0.3,0.1-0.4,0.1c-0.3,0-0.6-0.1-0.8-0.3s-0.3-0.5-0.3-0.9v-0.4
			c0-0.1,0-0.1,0.1-0.2c0,0,0.1-0.1,0.2-0.1c0.1,0,0.1,0,0.2,0.1c0,0,0.1,0.1,0.1,0.2v0.4c0,0.5,0.2,0.8,0.6,0.8
			c0.2,0,0.3,0,0.5-0.1s0.2-0.1,0.2-0.2v-0.8c0-0.1,0-0.1,0.1-0.2c0,0,0.1-0.1,0.2-0.1C12.7,48,12.8,48,12.9,48z"/>
		<path class="st6" d="M15.7,48.1c0.2,0.1,0.4,0.3,0.5,0.5c0.1,0.2,0.2,0.4,0.2,0.7v1.1c0,0.1,0,0.1-0.1,0.2c0,0-0.1,0.1-0.2,0.1
			c-0.1,0-0.1,0-0.2-0.1c0,0-0.1-0.1-0.1-0.2v-0.2c-0.1,0.1-0.3,0.3-0.4,0.3c-0.2,0.1-0.3,0.1-0.5,0.1c-0.2,0-0.4-0.1-0.6-0.2
			c-0.2-0.1-0.3-0.3-0.5-0.5c-0.1-0.2-0.2-0.4-0.2-0.7s0.1-0.5,0.2-0.7c0.1-0.2,0.3-0.4,0.5-0.5C14.5,48,14.8,48,15,48
			S15.5,48,15.7,48.1z M15.5,50.1c0.1-0.1,0.2-0.2,0.3-0.3s0.1-0.3,0.1-0.5s0-0.3-0.1-0.5s-0.2-0.3-0.3-0.3
			c-0.1-0.1-0.3-0.1-0.4-0.1c-0.2,0-0.3,0-0.4,0.1c-0.1,0.1-0.2,0.2-0.3,0.3s-0.1,0.3-0.1,0.5s0,0.3,0.1,0.5s0.2,0.2,0.3,0.3
			c0.1,0.1,0.3,0.1,0.4,0.1C15.2,50.2,15.3,50.2,15.5,50.1z"/>
		<path class="st6" d="M20.6,48.2c0.2,0.2,0.3,0.4,0.3,0.8v1.4c0,0.1,0,0.1-0.1,0.2c0,0-0.1,0.1-0.2,0.1c-0.1,0-0.1,0-0.2-0.1
			c0,0-0.1-0.1-0.1-0.2V49c0-0.2-0.1-0.4-0.2-0.5s-0.2-0.2-0.4-0.2c-0.2,0-0.3,0.1-0.4,0.2s-0.2,0.3-0.2,0.5v1.4
			c0,0.1,0,0.1-0.1,0.2c0,0-0.1,0.1-0.2,0.1c-0.1,0-0.1,0-0.2-0.1c0,0-0.1-0.1-0.1-0.2V49c0-0.2,0-0.4-0.1-0.5
			c-0.1-0.1-0.2-0.2-0.4-0.2c-0.2,0-0.3,0.1-0.4,0.2c-0.1,0.1-0.2,0.3-0.2,0.5v1.4c0,0.1,0,0.1-0.1,0.2c0,0-0.1,0.1-0.2,0.1
			c-0.1,0-0.1,0-0.2-0.1c0,0-0.1-0.1-0.1-0.2v-2.2c0-0.1,0-0.1,0.1-0.2c0,0,0.1-0.1,0.2-0.1c0.1,0,0.1,0,0.2,0.1
			c0,0,0.1,0.1,0.1,0.2c0.1-0.1,0.2-0.2,0.3-0.2c0.1,0,0.2-0.1,0.4-0.1c0.2,0,0.3,0,0.4,0.1c0.1,0.1,0.2,0.2,0.3,0.3
			c0.1-0.1,0.2-0.2,0.4-0.3c0.1-0.1,0.3-0.1,0.5-0.1C20.2,47.9,20.5,48,20.6,48.2z"/>
		<path class="st6" d="M26.7,48.2c0.2,0.2,0.3,0.4,0.3,0.8v1.4c0,0.1,0,0.1-0.1,0.2c0,0-0.1,0.1-0.2,0.1c-0.1,0-0.1,0-0.2-0.1
			c0,0-0.1-0.1-0.1-0.2V49c0-0.2-0.1-0.4-0.2-0.5s-0.2-0.2-0.4-0.2c-0.2,0-0.3,0.1-0.4,0.2s-0.2,0.3-0.2,0.5v1.4
			c0,0.1,0,0.1-0.1,0.2c0,0-0.1,0.1-0.2,0.1c-0.1,0-0.1,0-0.2-0.1c0,0-0.1-0.1-0.1-0.2V49c0-0.2,0-0.4-0.1-0.5
			c-0.1-0.1-0.2-0.2-0.4-0.2c-0.2,0-0.3,0.1-0.4,0.2c-0.1,0.1-0.2,0.3-0.2,0.5v1.4c0,0.1,0,0.1-0.1,0.2c0,0-0.1,0.1-0.2,0.1
			c-0.1,0-0.1,0-0.2-0.1c0,0-0.1-0.1-0.1-0.2v-2.2c0-0.1,0-0.1,0.1-0.2c0,0,0.1-0.1,0.2-0.1c0.1,0,0.1,0,0.2,0.1
			c0,0,0.1,0.1,0.1,0.2c0.1-0.1,0.2-0.2,0.3-0.2c0.1,0,0.2-0.1,0.4-0.1c0.2,0,0.3,0,0.4,0.1c0.1,0.1,0.2,0.2,0.3,0.3
			c0.1-0.1,0.2-0.2,0.4-0.3c0.1-0.1,0.3-0.1,0.5-0.1C26.3,47.9,26.5,48,26.7,48.2z"/>
		<path class="st6" d="M30,49.5c0.1,0.1,0.1,0.2,0.1,0.4c0,0.1,0,0.3-0.1,0.4c-0.1,0.1-0.2,0.2-0.3,0.3s-0.3,0.1-0.5,0.1H28
			c-0.1,0-0.1,0-0.2-0.1c0,0-0.1-0.1-0.1-0.2v-2.2c0-0.1,0-0.1,0.1-0.2c0,0,0.1-0.1,0.2-0.1h0h1.2c0.2,0,0.4,0.1,0.6,0.2
			c0.2,0.1,0.2,0.3,0.2,0.5c0,0.1,0,0.2-0.1,0.3c-0.1,0.1-0.2,0.2-0.3,0.2C29.8,49.3,29.9,49.4,30,49.5z M29.5,48.5
			c-0.1-0.1-0.1-0.1-0.2-0.1h-1v0.6h1c0.1,0,0.1,0,0.2-0.1c0.1-0.1,0.1-0.1,0.1-0.2C29.6,48.6,29.5,48.6,29.5,48.5z M29.5,50.1
			c0.1-0.1,0.1-0.1,0.1-0.2c0-0.1,0-0.2-0.1-0.3c-0.1-0.1-0.2-0.1-0.3-0.1h-1v0.7h1C29.4,50.2,29.5,50.2,29.5,50.1z"/>
		<path class="st6" d="M32.7,48.1c0.2,0.1,0.4,0.3,0.5,0.5c0.1,0.2,0.2,0.4,0.2,0.7c0,0.3-0.1,0.5-0.2,0.7s-0.3,0.4-0.5,0.5
			c-0.2,0.1-0.4,0.2-0.7,0.2c-0.3,0-0.5-0.1-0.7-0.2c-0.2-0.1-0.4-0.3-0.5-0.5c-0.1-0.2-0.2-0.4-0.2-0.7c0-0.3,0.1-0.5,0.2-0.7
			c0.1-0.2,0.3-0.4,0.5-0.5C31.5,48,31.7,48,32,48C32.2,48,32.5,48,32.7,48.1z M31.5,48.5c-0.1,0.1-0.2,0.2-0.3,0.3
			s-0.1,0.3-0.1,0.5s0,0.3,0.1,0.5s0.2,0.2,0.3,0.3c0.1,0.1,0.3,0.1,0.4,0.1c0.2,0,0.3,0,0.4-0.1c0.1-0.1,0.2-0.2,0.3-0.3
			c0.1-0.1,0.1-0.3,0.1-0.5s0-0.3-0.1-0.5c-0.1-0.1-0.2-0.3-0.3-0.3c-0.1-0.1-0.3-0.1-0.4-0.1C31.8,48.4,31.7,48.4,31.5,48.5z"/>
		<path class="st6" d="M36.5,48c0,0,0.1,0.1,0.1,0.2v2.2c0,0.1,0,0.1-0.1,0.2s-0.1,0.1-0.2,0.1c-0.1,0-0.1,0-0.2-0.1
			c0,0-0.1-0.1-0.1-0.2v-0.1c-0.1,0.1-0.2,0.2-0.4,0.2c-0.1,0.1-0.3,0.1-0.5,0.1c-0.2,0-0.4,0-0.6-0.1s-0.3-0.2-0.4-0.4
			c-0.1-0.2-0.2-0.4-0.2-0.7v-1.2c0-0.1,0-0.1,0.1-0.2c0,0,0.1-0.1,0.2-0.1c0.1,0,0.1,0,0.2,0.1c0,0,0.1,0.1,0.1,0.2v1.2
			c0,0.3,0.1,0.5,0.2,0.6c0.1,0.1,0.3,0.2,0.6,0.2c0.1,0,0.3,0,0.4-0.1c0.1-0.1,0.2-0.1,0.3-0.2c0.1-0.1,0.1-0.2,0.1-0.3v-1.4
			c0-0.1,0-0.1,0.1-0.2c0,0,0.1-0.1,0.2-0.1C36.4,48,36.4,48,36.5,48z"/>
		<path class="st6" d="M39.4,50.4c0,0.1,0,0.1-0.1,0.1c0,0-0.1,0.1-0.2,0.1c-0.1,0-0.1,0-0.2-0.1l-0.8-0.9l-0.7,0.9
			c0,0.1-0.1,0.1-0.2,0.1c-0.1,0-0.1,0-0.2-0.1c0,0-0.1-0.1-0.1-0.1c0-0.1,0-0.1,0.1-0.2l0.8-1l-0.8-1c0-0.1-0.1-0.1-0.1-0.2
			c0-0.1,0-0.1,0.1-0.1c0,0,0.1-0.1,0.2-0.1c0.1,0,0.1,0,0.2,0.1l0.8,1l0.7-1C39,48,39,48,39.1,48c0.1,0,0.1,0,0.2,0.1
			c0,0,0.1,0.1,0.1,0.1c0,0.1,0,0.1-0.1,0.2l-0.7,1l0.8,0.9C39.4,50.3,39.4,50.4,39.4,50.4z"/>
		<path class="st6" d="M43.8,48.1c0.2,0.1,0.4,0.3,0.5,0.5c0.1,0.2,0.2,0.4,0.2,0.7s-0.1,0.5-0.2,0.7c-0.1,0.2-0.3,0.4-0.5,0.5
			c-0.2,0.1-0.4,0.2-0.7,0.2v0.9c0,0.1,0,0.1-0.1,0.2s-0.1,0.1-0.2,0.1c-0.1,0-0.1,0-0.2-0.1c0,0-0.1-0.1-0.1-0.2v-0.9
			c-0.3,0-0.5-0.1-0.7-0.2c-0.2-0.1-0.4-0.3-0.5-0.5c-0.1-0.2-0.2-0.4-0.2-0.7s0.1-0.5,0.2-0.7c0.1-0.2,0.3-0.4,0.5-0.5
			c0.2-0.1,0.4-0.2,0.7-0.2v-0.9c0-0.1,0-0.1,0.1-0.2c0,0,0.1-0.1,0.2-0.1c0.1,0,0.1,0,0.2,0.1c0,0,0.1,0.1,0.1,0.2V48
			C43.4,48,43.6,48,43.8,48.1z M42.6,48.4c-0.2,0-0.3,0-0.4,0.1c-0.1,0.1-0.2,0.2-0.3,0.3c-0.1,0.1-0.1,0.3-0.1,0.5s0,0.3,0.1,0.5
			c0.1,0.1,0.2,0.2,0.3,0.3c0.1,0.1,0.3,0.1,0.4,0.1V48.4z M43.6,50.1c0.1-0.1,0.2-0.2,0.3-0.3c0.1-0.1,0.1-0.3,0.1-0.5
			s0-0.3-0.1-0.5c-0.1-0.1-0.2-0.2-0.3-0.3c-0.1-0.1-0.3-0.1-0.4-0.1v1.8C43.3,50.2,43.5,50.2,43.6,50.1z"/>
		<path class="st6" d="M47.1,48.1c0.2,0.1,0.4,0.3,0.5,0.5c0.1,0.2,0.2,0.4,0.2,0.7v1.1c0,0.1,0,0.1-0.1,0.2c0,0-0.1,0.1-0.2,0.1
			c-0.1,0-0.1,0-0.2-0.1c0,0-0.1-0.1-0.1-0.2v-0.2c-0.1,0.1-0.3,0.3-0.4,0.3c-0.2,0.1-0.3,0.1-0.5,0.1c-0.2,0-0.4-0.1-0.6-0.2
			c-0.2-0.1-0.3-0.3-0.5-0.5c-0.1-0.2-0.2-0.4-0.2-0.7s0.1-0.5,0.2-0.7c0.1-0.2,0.3-0.4,0.5-0.5C46,48,46.2,48,46.5,48
			S46.9,48,47.1,48.1z M46.9,50.1c0.1-0.1,0.2-0.2,0.3-0.3s0.1-0.3,0.1-0.5s0-0.3-0.1-0.5s-0.2-0.3-0.3-0.3
			c-0.1-0.1-0.3-0.1-0.4-0.1c-0.2,0-0.3,0-0.4,0.1c-0.1,0.1-0.2,0.2-0.3,0.3s-0.1,0.3-0.1,0.5s0,0.3,0.1,0.5s0.2,0.2,0.3,0.3
			c0.1,0.1,0.3,0.1,0.4,0.1C46.6,50.2,46.8,50.2,46.9,50.1z"/>
		<path class="st6" d="M51,48c0,0,0.1,0.1,0.1,0.2v2.2c0,0.1,0,0.1-0.1,0.2c0,0-0.1,0.1-0.2,0.1s-0.1,0-0.2-0.1c0,0-0.1-0.1-0.1-0.2
			v-0.9H49v0.9c0,0.1,0,0.1-0.1,0.2c0,0-0.1,0.1-0.2,0.1c-0.1,0-0.1,0-0.2-0.1c0,0-0.1-0.1-0.1-0.2v-2.2c0-0.1,0-0.1,0.1-0.2
			c0,0,0.1-0.1,0.2-0.1c0.1,0,0.1,0,0.2,0.1c0,0,0.1,0.1,0.1,0.2V49h1.5v-0.8c0-0.1,0-0.1,0.1-0.2c0,0,0.1-0.1,0.2-0.1
			S50.9,48,51,48z"/>
		<path class="st6" d="M55.4,48.2c0.2,0.2,0.3,0.4,0.3,0.8v1.4c0,0.1,0,0.1-0.1,0.2c0,0-0.1,0.1-0.2,0.1c-0.1,0-0.1,0-0.2-0.1
			c0,0-0.1-0.1-0.1-0.2V49c0-0.2-0.1-0.4-0.2-0.5s-0.2-0.2-0.4-0.2c-0.2,0-0.3,0.1-0.4,0.2s-0.2,0.3-0.2,0.5v1.4
			c0,0.1,0,0.1-0.1,0.2c0,0-0.1,0.1-0.2,0.1c-0.1,0-0.1,0-0.2-0.1c0,0-0.1-0.1-0.1-0.2V49c0-0.2,0-0.4-0.1-0.5
			c-0.1-0.1-0.2-0.2-0.4-0.2c-0.2,0-0.3,0.1-0.4,0.2c-0.1,0.1-0.2,0.3-0.2,0.5v1.4c0,0.1,0,0.1-0.1,0.2c0,0-0.1,0.1-0.2,0.1
			c-0.1,0-0.1,0-0.2-0.1c0,0-0.1-0.1-0.1-0.2v-2.2c0-0.1,0-0.1,0.1-0.2c0,0,0.1-0.1,0.2-0.1c0.1,0,0.1,0,0.2,0.1
			c0,0,0.1,0.1,0.1,0.2c0.1-0.1,0.2-0.2,0.3-0.2c0.1,0,0.2-0.1,0.4-0.1c0.2,0,0.3,0,0.4,0.1c0.1,0.1,0.2,0.2,0.3,0.3
			c0.1-0.1,0.2-0.2,0.4-0.3c0.1-0.1,0.3-0.1,0.5-0.1C55,47.9,55.3,48,55.4,48.2z"/>
		<path class="st6" d="M58.4,48.1c0.2,0.1,0.4,0.3,0.5,0.5c0.1,0.2,0.2,0.4,0.2,0.7v1.1c0,0.1,0,0.1-0.1,0.2c0,0-0.1,0.1-0.2,0.1
			c-0.1,0-0.1,0-0.2-0.1c0,0-0.1-0.1-0.1-0.2v-0.2c-0.1,0.1-0.3,0.3-0.4,0.3c-0.2,0.1-0.3,0.1-0.5,0.1c-0.2,0-0.4-0.1-0.6-0.2
			c-0.2-0.1-0.3-0.3-0.5-0.5c-0.1-0.2-0.2-0.4-0.2-0.7s0.1-0.5,0.2-0.7c0.1-0.2,0.3-0.4,0.5-0.5c0.2-0.1,0.4-0.2,0.7-0.2
			S58.2,48,58.4,48.1z M58.2,50.1c0.1-0.1,0.2-0.2,0.3-0.3s0.1-0.3,0.1-0.5s0-0.3-0.1-0.5s-0.2-0.3-0.3-0.3
			c-0.1-0.1-0.3-0.1-0.4-0.1c-0.2,0-0.3,0-0.4,0.1c-0.1,0.1-0.2,0.2-0.3,0.3s-0.1,0.3-0.1,0.5s0,0.3,0.1,0.5s0.2,0.2,0.3,0.3
			c0.1,0.1,0.3,0.1,0.4,0.1C57.9,50.2,58.1,50.2,58.2,50.1z"/>
		<path class="st6" d="M61.7,49.5c0.1,0.1,0.2,0.2,0.2,0.4c0,0.2,0,0.3-0.1,0.4c-0.1,0.1-0.2,0.2-0.4,0.3c-0.2,0.1-0.3,0.1-0.5,0.1
			c-0.2,0-0.4,0-0.6-0.1c-0.2-0.1-0.3-0.2-0.5-0.3c-0.1-0.1-0.1-0.1-0.1-0.2c0-0.1,0-0.1,0.1-0.2c0,0,0.1,0,0.2,0
			c0.1,0,0.1,0,0.2,0.1c0.2,0.2,0.4,0.2,0.7,0.2c0.2,0,0.3,0,0.4-0.1c0.1-0.1,0.2-0.2,0.2-0.3c0-0.1,0-0.2-0.1-0.3s-0.2-0.1-0.3-0.1
			h-0.3c-0.1,0-0.1,0-0.2-0.1c0,0-0.1-0.1-0.1-0.1s0-0.1,0.1-0.1c0,0,0.1-0.1,0.2-0.1h0.3c0.1,0,0.2,0,0.2-0.1
			c0.1-0.1,0.1-0.1,0.1-0.3c0-0.1,0-0.2-0.1-0.3c-0.1-0.1-0.2-0.1-0.4-0.1c-0.1,0-0.3,0-0.4,0.1c-0.1,0-0.2,0.1-0.3,0.2
			c-0.1,0.1-0.1,0.1-0.2,0.1c-0.1,0-0.1,0-0.2-0.1c0,0-0.1-0.1-0.1-0.1c0-0.1,0-0.1,0.1-0.2c0.1-0.1,0.3-0.2,0.4-0.3
			c0.2-0.1,0.4-0.1,0.5-0.1c0.2,0,0.4,0,0.5,0.1c0.2,0.1,0.3,0.2,0.4,0.3c0.1,0.1,0.1,0.2,0.1,0.4c0,0.1,0,0.3-0.1,0.4
			c-0.1,0.1-0.2,0.2-0.3,0.2C61.4,49.3,61.6,49.4,61.7,49.5z"/>
		<path class="st6" d="M64.8,48c0,0,0.1,0.1,0.1,0.2v2.2c0,0.1,0,0.1-0.1,0.2s-0.1,0.1-0.2,0.1c-0.1,0-0.1,0-0.2-0.1
			c0,0-0.1-0.1-0.1-0.2v-0.1c-0.1,0.1-0.2,0.2-0.4,0.2c-0.1,0.1-0.3,0.1-0.5,0.1c-0.2,0-0.4,0-0.6-0.1s-0.3-0.2-0.4-0.4
			c-0.1-0.2-0.2-0.4-0.2-0.7v-1.2c0-0.1,0-0.1,0.1-0.2c0,0,0.1-0.1,0.2-0.1c0.1,0,0.1,0,0.2,0.1c0,0,0.1,0.1,0.1,0.2v1.2
			c0,0.3,0.1,0.5,0.2,0.6c0.1,0.1,0.3,0.2,0.6,0.2c0.1,0,0.3,0,0.4-0.1c0.1-0.1,0.2-0.1,0.3-0.2c0.1-0.1,0.1-0.2,0.1-0.3v-1.4
			c0-0.1,0-0.1,0.1-0.2c0,0,0.1-0.1,0.2-0.1C64.7,48,64.8,48,64.8,48z"/>
		<path class="st6" d="M68.2,48c0,0,0.1,0.1,0.1,0.2v2.2c0,0.1,0,0.1-0.1,0.2s-0.1,0.1-0.2,0.1c-0.1,0-0.1,0-0.2-0.1
			c0,0-0.1-0.1-0.1-0.2v-0.1c-0.1,0.1-0.2,0.2-0.4,0.2c-0.1,0.1-0.3,0.1-0.5,0.1c-0.2,0-0.4,0-0.6-0.1s-0.3-0.2-0.4-0.4
			c-0.1-0.2-0.2-0.4-0.2-0.7v-1.2c0-0.1,0-0.1,0.1-0.2c0,0,0.1-0.1,0.2-0.1c0.1,0,0.1,0,0.2,0.1c0,0,0.1,0.1,0.1,0.2v1.2
			c0,0.3,0.1,0.5,0.2,0.6c0.1,0.1,0.3,0.2,0.6,0.2c0.1,0,0.3,0,0.4-0.1c0.1-0.1,0.2-0.1,0.3-0.2c0.1-0.1,0.1-0.2,0.1-0.3v-1.4
			c0-0.1,0-0.1,0.1-0.2c0,0,0.1-0.1,0.2-0.1C68.1,48,68.1,48,68.2,48z M66.5,46.8c0,0,0.1,0.1,0.1,0.2c0,0.1,0,0.2,0.1,0.2
			c0.1,0.1,0.2,0.1,0.3,0.1c0.1,0,0.2,0,0.3-0.1c0.1-0.1,0.1-0.1,0.1-0.2c0-0.1,0-0.1,0.1-0.2c0,0,0.1-0.1,0.2-0.1
			c0.1,0,0.1,0,0.2,0.1c0,0,0.1,0.1,0.1,0.2c0,0.1,0,0.2-0.1,0.3c-0.1,0.1-0.2,0.2-0.3,0.2s-0.3,0.1-0.5,0.1s-0.3,0-0.5-0.1
			s-0.2-0.1-0.3-0.2c-0.1-0.1-0.1-0.2-0.1-0.3c0-0.1,0-0.1,0.1-0.2c0,0,0.1-0.1,0.2-0.1C66.4,46.7,66.5,46.7,66.5,46.8z"/>
	</g>
</g>
</svg>
