<!-- Generator: Adobe Illustrator 21.1.0, SVG Export Plug-In  -->
<svg version="1.1"
	 xmlns="http://www.w3.org/2000/svg" xmlns:xlink="http://www.w3.org/1999/xlink" xmlns:a="http://ns.adobe.com/AdobeSVGViewerExtensions/3.0/"
	 x="0px" y="0px" width="121px" height="20.6px" viewBox="0 0 121 20.6" style="enable-background:new 0 0 121 20.6;"
	 xml:space="preserve">
<style type="text/css">
	.st0{fill:#FFFFFF;}
	.st1{fill-rule:evenodd;clip-rule:evenodd;fill:#210D0C;}
	.st2{fill-rule:evenodd;clip-rule:evenodd;fill:#D91F26;}
	.st3{fill-rule:evenodd;clip-rule:evenodd;fill:#FFFFFF;}
	.st4{fill-rule:evenodd;clip-rule:evenodd;fill:#E7362E;}
	.st5{fill-rule:evenodd;clip-rule:evenodd;fill:#EA6A6D;}
</style>
<defs>
</defs>
<g>
	<path class="st0" d="M52.8,4.8C52.8,4.8,52.8,4.8,52.8,4.8c-0.2,0.2-0.4,0.6-0.4,0.9v7.7h-2.7V5.7c0-0.4-0.1-0.7-0.4-0.9
		c-0.5-0.5-1.3-0.5-1.8,0c-0.2,0.2-0.4,0.6-0.4,0.9v7.7h-2.7V5.7c0-0.4-0.1-0.7-0.4-0.9c-0.5-0.5-1.3-0.5-1.8,0
		C42,5,41.8,5.3,41.8,5.7v8.9c0,0.4,0.1,0.7,0.4,0.9c0.2,0.2,0.6,0.4,0.9,0.4h10.6c0.3,0,0.7-0.1,0.9-0.4c0.2-0.2,0.4-0.6,0.4-0.9
		V5.7c0-0.4-0.1-0.7-0.4-0.9C54.1,4.3,53.3,4.3,52.8,4.8z"/>
	<path class="st0" d="M62.7,5.3c-0.2-0.5-0.6-0.8-1.2-0.8c-0.5,0-1,0.3-1.2,0.8L56.6,14c-0.1,0.2-0.1,0.4-0.1,0.5
		c0,0.3,0.1,0.6,0.3,0.9c0.4,0.4,1.1,0.5,1.6,0.2c0.2-0.1,0.4-0.3,0.5-0.6l0.6-1.5h3.9L64,15c0.1,0.2,0.3,0.4,0.5,0.6
		c0.2,0.1,0.4,0.2,0.7,0.2c0.3,0,0.7-0.1,0.9-0.4c0.2-0.2,0.4-0.5,0.4-0.9c0-0.2,0-0.3-0.1-0.5L62.7,5.3z M61.5,8.8l1,2.5h-2
		L61.5,8.8z"/>
	<path class="st0" d="M73.1,5.3c-0.2-0.5-0.6-0.8-1.2-0.8c-0.5,0-1,0.3-1.2,0.8L67,14c-0.1,0.2-0.1,0.4-0.1,0.5
		c0,0.3,0.1,0.6,0.3,0.9c0.4,0.4,1.1,0.5,1.6,0.2c0.2-0.1,0.4-0.3,0.5-0.6l2.6-6.2l2.5,6.2c0.1,0.2,0.3,0.4,0.5,0.6
		c0.2,0.1,0.4,0.2,0.7,0.2c0.4,0,0.7-0.1,0.9-0.4c0.2-0.2,0.3-0.5,0.3-0.9c0-0.2,0-0.3-0.1-0.5L73.1,5.3z M68.5,15.1L68.5,15.1
		L68.5,15.1L68.5,15.1z"/>
	<path class="st0" d="M86.5,5L86.5,5c-0.9-0.5-1.9-0.7-3-0.7c-1.1,0-2.1,0.3-3,0.7c-0.9,0.5-1.6,1.2-2.1,2.1C78,8,77.7,9,77.7,10.1
		c0,1.1,0.2,2.1,0.7,3c0.5,0.9,1.2,1.6,2.1,2.1c0.9,0.5,1.9,0.7,3,0.7c1.1,0,2.1-0.3,3-0.7c0.9-0.5,1.6-1.2,2.1-2.1
		c0.5-0.9,0.7-1.9,0.7-3c0-1.1-0.2-2.1-0.7-3C88.1,6.2,87.4,5.5,86.5,5z M86.8,10.1c0,0.7-0.1,1.2-0.4,1.8c-0.3,0.5-0.7,0.9-1.2,1.2
		c-0.5,0.3-1.1,0.4-1.7,0.4c-0.6,0-1.2-0.1-1.7-0.4c-0.5-0.3-0.9-0.7-1.2-1.2c-0.3-0.5-0.4-1.1-0.4-1.8c0-0.6,0.1-1.2,0.4-1.8
		c0.3-0.5,0.7-0.9,1.2-1.2c0,0,0,0,0,0c0.5-0.3,1.1-0.4,1.7-0.4s1.2,0.1,1.7,0.4c0.5,0.3,0.9,0.7,1.2,1.2
		C86.7,8.9,86.8,9.5,86.8,10.1z"/>
	<path class="st0" d="M94.8,7.1c0.5-0.3,1-0.4,1.6-0.4c0.5,0,0.8,0.1,1.1,0.2C97.7,7,98,7.2,98.3,7.4c0.5,0.4,1.2,0.4,1.7,0
		c0.3-0.2,0.4-0.5,0.4-0.9c0-0.2,0-0.4-0.1-0.5c-0.1-0.2-0.2-0.3-0.4-0.5c-0.5-0.4-1.1-0.8-1.6-1c-0.5-0.2-1.2-0.3-1.9-0.3
		c-1,0-2,0.3-2.9,0.8c-0.9,0.5-1.5,1.2-2,2.1c-0.5,0.9-0.7,1.9-0.7,2.9c0,1.1,0.2,2.1,0.7,2.9c0.5,0.9,1.2,1.6,2,2.1
		c0.9,0.5,1.8,0.8,2.9,0.8c1.3,0,2.5-0.4,3.6-1.3c0,0,0,0,0,0c0.3-0.3,0.4-0.6,0.4-0.9c0-0.3-0.1-0.6-0.3-0.9
		c-0.4-0.4-1-0.5-1.6-0.1c-0.7,0.5-1.3,0.7-2.1,0.7c-0.6,0-1.1-0.1-1.6-0.4c-0.5-0.3-0.9-0.7-1.2-1.2c-0.3-0.5-0.4-1.1-0.4-1.7
		c0-0.6,0.1-1.2,0.4-1.7C93.9,7.9,94.3,7.5,94.8,7.1z"/>
	<path class="st0" d="M109.6,4.4h-7c-0.3,0-0.6,0.1-0.9,0.4c-0.2,0.2-0.3,0.5-0.3,0.9c0,0.3,0.1,0.6,0.4,0.9
		c0.2,0.2,0.5,0.3,0.9,0.3h2.2v7.7c0,0.3,0.1,0.7,0.4,0.9c0.2,0.2,0.6,0.4,0.9,0.4c0.3,0,0.7-0.1,0.9-0.4c0.2-0.2,0.4-0.6,0.4-0.9
		V6.9h2.2c0.3,0,0.6-0.1,0.9-0.3c0.2-0.2,0.4-0.5,0.4-0.9s-0.1-0.6-0.3-0.9C110.3,4.5,110,4.4,109.6,4.4z"/>
	<path class="st0" d="M120.5,10.1c-0.3-0.6-0.8-1-1.4-1.3c-0.6-0.3-1.3-0.5-2-0.5h-2.1V5.6c0-0.4-0.1-0.7-0.4-0.9
		c-0.5-0.4-1.3-0.4-1.8,0c-0.3,0.2-0.4,0.5-0.4,0.9v8.9c0,0.3,0.1,0.7,0.4,0.9c0.2,0.2,0.6,0.4,0.9,0.4h3.4c0.7,0,1.4-0.2,2-0.5
		c0.6-0.3,1.1-0.8,1.4-1.4c0.3-0.6,0.5-1.2,0.5-2C121,11.3,120.8,10.7,120.5,10.1z M118.1,13c-0.3,0.2-0.6,0.4-1.1,0.4h-2.1v-2.7
		h2.1c0.5,0,0.8,0.1,1.1,0.3c0.2,0.2,0.3,0.5,0.3,1C118.5,12.5,118.4,12.8,118.1,13z"/>
</g>
<g>
	<path class="st1" d="M25.2,5.1c1.1,1.4,9.9,5.9,10.4,6.1c0.5,0.2,1.2,1.1-0.7,2.7c-2,1.6-17,1.1-19.8-0.4c-2.8-1.5-6.5-2.9-8.4-2.5
		c-1.8,0.4-3.9-1.3-0.5-3.3C9.4,5.8,25.2,5.1,25.2,5.1z"/>
	<path class="st2" d="M36.4,11.3c0.1,0,0.4-0.4,0.4,0c-0.4,7.7-5.1,9.4-11.1,9.3c-15-0.2-22.5-8.3-25.7-9.4c0,0,4.1-1.6,8.8-2.5
		c10.9-2.1,11.6,6.5,20.6,5C34.2,12.9,36.4,11.3,36.4,11.3z"/>
	<g>
		<path class="st3" d="M30.1,8.9c0,0,0,1.3-1.6,1.7c-1.7,0.4-2.9,0-3.3-0.3c-0.4-0.3-0.3-3.4,0.2-3.5c0.5-0.2,4.2,0.8,4.5,1.2
			C30.2,8.3,30.1,8.9,30.1,8.9z"/>
		<path class="st3" d="M7.6,8.9c0,0,0,1.3,1.6,1.7c1.7,0.4,2.9,0,3.3-0.3c0.4-0.3,0.3-3.4-0.2-3.5c-0.5-0.2-4.2,0.8-4.5,1.2
			C7.5,8.3,7.6,8.9,7.6,8.9z"/>
		<path class="st3" d="M25.3,6.4c0.1,0.3-0.1,3-0.3,3.8c-0.2,0.8-0.9,1-1.7,1c-0.8,0-3.6-0.3-4-0.6c-0.5-0.3-0.3-4.9-0.3-4.9
			L25.3,6.4z"/>
		<path class="st3" d="M12.6,6.4c-0.1,0.3,0.1,3,0.3,3.8c0.2,0.8,0.9,1,1.7,1c0.8,0,3.6-0.3,4-0.6c0.5-0.3,0.3-4.9,0.3-4.9L12.6,6.4
			z"/>
	</g>
	<path class="st4" d="M36.5,11.1c-1.2-0.2-1.6-1.8-4.6-5.7c-3.2-4.1-4.4-5.6-8.3-5.4c-3.9,0.2-3.5,1.3-5.2,1.3
		c-1.7,0-3.1-1.3-5.7-1.2c-2.5,0.1-5.5,3-7.2,5.6c-1.7,2.6-2.9,4.1-4,4.8C0.3,11.1,0,11.2,0,11.2s1,0.6,3,0.4c2-0.1,5.3-0.8,7.1-2.2
		c1.8-1.4,4.4-3.2,5.6-3.1c1.1,0.1,1.2,0.7,3.2,0.8c2,0.1,2.2-0.8,3.8-0.6c1.9,0.2,10.4,7.9,14.1,4.9C37,11.2,36.6,11.1,36.5,11.1z"
		/>
	<path class="st5" d="M17.7,16.5c-1.5,0.5,3.7,2.7,8,2.6c5-0.1,8.7-2.1,8.4-4.1C34,14.3,27.1,18.6,17.7,16.5z"/>
	<path class="st5" d="M23.8,0.3c3.4,0.1,5.7,3.3,5.3,3.2C26,2.1,23.7,1.8,18.7,2.6C19.2,2.2,21.5,0.2,23.8,0.3z"/>
</g>
</svg>
